<svg width="32" height="32" viewBox="0 0 32 32" fill="none" xmlns="http://www.w3.org/2000/svg">
  <!-- Background circle -->
  <circle cx="16" cy="16" r="16" fill="#FFFFFF"/>

  <!-- Orange accent in top right -->
  <path d="M24 4C28 8 30 12 28 16C26 20 22 22 18 20C14 18 12 14 14 10C16 6 20 4 24 4Z" fill="#E86C3A" opacity="0.8"/>

  <!-- Yellow accent in bottom left -->
  <path d="M8 28C4 24 2 20 4 16C6 12 10 10 14 12C18 14 20 18 18 22C16 26 12 28 8 28Z" fill="#FFCC00" opacity="0.8"/>

  <!-- Stylized M with zebra pattern -->
  <path d="M6 8L12 20H14L20 8H26L16 26L6 8Z" fill="black"/>

  <!-- Additional diagonal stripes to match the zigzag pattern -->
  <path d="M10 8L16 18L22 8" stroke="white" stroke-width="1.5" stroke-linecap="round"/>
  <path d="M12 10L16 16L20 10" stroke="white" stroke-width="1" stroke-linecap="round"/>
  <path d="M14 12L16 15L18 12" stroke="white" stroke-width="0.75" stroke-linecap="round"/>
</svg>
